<mxfile host="app.diagrams.net" modified="2024-05-16T08:54:30.554Z" agent="Mozilla/5.0 (Macintosh; Intel Mac OS X 10.15; rv:125.0) Gecko/20100101 Firefox/125.0" etag="BZdjdEZpCPtEh-OSX382" version="24.4.2" type="github">
  <diagram name="Page-1" id="c4acf3e9-155e-7222-9cf6-157b1a14988f">
    <mxGraphModel dx="937" dy="604" grid="1" gridSize="10" guides="1" tooltips="1" connect="1" arrows="1" fold="1" page="1" pageScale="1" pageWidth="850" pageHeight="1100" background="none" math="0" shadow="0">
      <root>
        <mxCell id="0" />
        <mxCell id="1" parent="0" />
        <mxCell id="17acba5748e5396b-20" value="User" style="swimlane;html=1;fontStyle=0;childLayout=stackLayout;horizontal=1;startSize=26;fillColor=none;horizontalStack=0;resizeParent=1;resizeLast=0;collapsible=1;marginBottom=0;swimlaneFillColor=#ffffff;rounded=0;shadow=0;comic=0;labelBackgroundColor=none;strokeWidth=1;fontFamily=Verdana;fontSize=10;align=center;" parent="1" vertex="1">
          <mxGeometry x="70" y="97" width="160" height="233" as="geometry" />
        </mxCell>
        <mxCell id="17acba5748e5396b-21" value="id_user" style="text;html=1;strokeColor=none;fillColor=none;align=left;verticalAlign=top;spacingLeft=4;spacingRight=4;whiteSpace=wrap;overflow=hidden;rotatable=0;points=[[0,0.5],[1,0.5]];portConstraint=eastwest;" parent="17acba5748e5396b-20" vertex="1">
          <mxGeometry y="26" width="160" height="26" as="geometry" />
        </mxCell>
        <mxCell id="17acba5748e5396b-26" value="mail_adress" style="text;html=1;strokeColor=none;fillColor=none;align=left;verticalAlign=top;spacingLeft=4;spacingRight=4;whiteSpace=wrap;overflow=hidden;rotatable=0;points=[[0,0.5],[1,0.5]];portConstraint=eastwest;" parent="17acba5748e5396b-20" vertex="1">
          <mxGeometry y="52" width="160" height="26" as="geometry" />
        </mxCell>
        <mxCell id="4-IDEk3W93GI_t67XEji-1" value="password" style="text;html=1;strokeColor=none;fillColor=none;align=left;verticalAlign=top;spacingLeft=4;spacingRight=4;whiteSpace=wrap;overflow=hidden;rotatable=0;points=[[0,0.5],[1,0.5]];portConstraint=eastwest;" parent="17acba5748e5396b-20" vertex="1">
          <mxGeometry y="78" width="160" height="32" as="geometry" />
        </mxCell>
        <mxCell id="4-IDEk3W93GI_t67XEji-2" value="pseudo" style="text;html=1;strokeColor=none;fillColor=none;align=left;verticalAlign=top;spacingLeft=4;spacingRight=4;whiteSpace=wrap;overflow=hidden;rotatable=0;points=[[0,0.5],[1,0.5]];portConstraint=eastwest;" parent="17acba5748e5396b-20" vertex="1">
          <mxGeometry y="110" width="160" height="32" as="geometry" />
        </mxCell>
        <mxCell id="4-IDEk3W93GI_t67XEji-3" value="birthdate" style="text;html=1;strokeColor=none;fillColor=none;align=left;verticalAlign=top;spacingLeft=4;spacingRight=4;whiteSpace=wrap;overflow=hidden;rotatable=0;points=[[0,0.5],[1,0.5]];portConstraint=eastwest;" parent="17acba5748e5396b-20" vertex="1">
          <mxGeometry y="142" width="160" height="28" as="geometry" />
        </mxCell>
        <mxCell id="4-IDEk3W93GI_t67XEji-10" value="isAdmin" style="text;html=1;strokeColor=none;fillColor=none;align=left;verticalAlign=top;spacingLeft=4;spacingRight=4;whiteSpace=wrap;overflow=hidden;rotatable=0;points=[[0,0.5],[1,0.5]];portConstraint=eastwest;" parent="17acba5748e5396b-20" vertex="1">
          <mxGeometry y="170" width="160" height="30" as="geometry" />
        </mxCell>
        <mxCell id="4-IDEk3W93GI_t67XEji-25" value="totalScore" style="text;html=1;strokeColor=none;fillColor=none;align=left;verticalAlign=top;spacingLeft=4;spacingRight=4;whiteSpace=wrap;overflow=hidden;rotatable=0;points=[[0,0.5],[1,0.5]];portConstraint=eastwest;" parent="17acba5748e5396b-20" vertex="1">
          <mxGeometry y="200" width="160" height="30" as="geometry" />
        </mxCell>
        <mxCell id="17acba5748e5396b-30" value="Message" style="swimlane;html=1;fontStyle=0;childLayout=stackLayout;horizontal=1;startSize=26;fillColor=none;horizontalStack=0;resizeParent=1;resizeLast=0;collapsible=1;marginBottom=0;swimlaneFillColor=#ffffff;rounded=0;shadow=0;comic=0;labelBackgroundColor=none;strokeWidth=1;fontFamily=Verdana;fontSize=10;align=center;" parent="1" vertex="1">
          <mxGeometry x="530" y="160" width="160" height="83" as="geometry" />
        </mxCell>
        <mxCell id="17acba5748e5396b-31" value="id_message" style="text;html=1;strokeColor=none;fillColor=none;align=left;verticalAlign=top;spacingLeft=4;spacingRight=4;whiteSpace=wrap;overflow=hidden;rotatable=0;points=[[0,0.5],[1,0.5]];portConstraint=eastwest;" parent="17acba5748e5396b-30" vertex="1">
          <mxGeometry y="26" width="160" height="26" as="geometry" />
        </mxCell>
        <mxCell id="17acba5748e5396b-32" value="content" style="text;html=1;strokeColor=none;fillColor=none;align=left;verticalAlign=top;spacingLeft=4;spacingRight=4;whiteSpace=wrap;overflow=hidden;rotatable=0;points=[[0,0.5],[1,0.5]];portConstraint=eastwest;" parent="17acba5748e5396b-30" vertex="1">
          <mxGeometry y="52" width="160" height="26" as="geometry" />
        </mxCell>
        <mxCell id="5d2195bd80daf111-17" value="Sends" style="html=1;rounded=0;shadow=0;comic=0;labelBackgroundColor=none;strokeWidth=1;fontFamily=Verdana;fontSize=10;align=center;" parent="1" vertex="1">
          <mxGeometry x="330" y="140" width="110" height="50" as="geometry" />
        </mxCell>
        <mxCell id="4-IDEk3W93GI_t67XEji-5" value="" style="endArrow=none;html=1;rounded=0;entryX=0;entryY=0.5;entryDx=0;entryDy=0;" parent="1" source="4-IDEk3W93GI_t67XEji-7" target="5d2195bd80daf111-17" edge="1">
          <mxGeometry width="50" height="50" relative="1" as="geometry">
            <mxPoint x="230" y="165" as="sourcePoint" />
            <mxPoint x="280" y="120" as="targetPoint" />
          </mxGeometry>
        </mxCell>
        <mxCell id="4-IDEk3W93GI_t67XEji-6" value="" style="endArrow=none;html=1;rounded=0;" parent="1" source="4-IDEk3W93GI_t67XEji-8" edge="1">
          <mxGeometry width="50" height="50" relative="1" as="geometry">
            <mxPoint x="440" y="164.5" as="sourcePoint" />
            <mxPoint x="530" y="165" as="targetPoint" />
          </mxGeometry>
        </mxCell>
        <mxCell id="4-IDEk3W93GI_t67XEji-11" value="Receives" style="html=1;rounded=0;shadow=0;comic=0;labelBackgroundColor=none;strokeWidth=1;fontFamily=Verdana;fontSize=10;align=center;" parent="1" vertex="1">
          <mxGeometry x="330" y="210" width="110" height="50" as="geometry" />
        </mxCell>
        <mxCell id="4-IDEk3W93GI_t67XEji-12" value="" style="endArrow=none;html=1;rounded=0;entryX=0;entryY=0.5;entryDx=0;entryDy=0;" parent="1" source="4-IDEk3W93GI_t67XEji-14" target="4-IDEk3W93GI_t67XEji-11" edge="1">
          <mxGeometry width="50" height="50" relative="1" as="geometry">
            <mxPoint x="230" y="235" as="sourcePoint" />
            <mxPoint x="280" y="190" as="targetPoint" />
          </mxGeometry>
        </mxCell>
        <mxCell id="4-IDEk3W93GI_t67XEji-13" value="" style="endArrow=none;html=1;rounded=0;" parent="1" source="4-IDEk3W93GI_t67XEji-15" edge="1">
          <mxGeometry width="50" height="50" relative="1" as="geometry">
            <mxPoint x="440" y="234.5" as="sourcePoint" />
            <mxPoint x="530" y="235" as="targetPoint" />
          </mxGeometry>
        </mxCell>
        <mxCell id="4-IDEk3W93GI_t67XEji-16" value="Story" style="swimlane;html=1;fontStyle=0;childLayout=stackLayout;horizontal=1;startSize=26;fillColor=none;horizontalStack=0;resizeParent=1;resizeLast=0;collapsible=1;marginBottom=0;swimlaneFillColor=#ffffff;rounded=0;shadow=0;comic=0;labelBackgroundColor=none;strokeWidth=1;fontFamily=Verdana;fontSize=10;align=center;" parent="1" vertex="1">
          <mxGeometry x="320" y="594" width="160" height="230" as="geometry" />
        </mxCell>
        <mxCell id="4-IDEk3W93GI_t67XEji-17" value="id_story" style="text;html=1;strokeColor=none;fillColor=none;align=left;verticalAlign=top;spacingLeft=4;spacingRight=4;whiteSpace=wrap;overflow=hidden;rotatable=0;points=[[0,0.5],[1,0.5]];portConstraint=eastwest;" parent="4-IDEk3W93GI_t67XEji-16" vertex="1">
          <mxGeometry y="26" width="160" height="26" as="geometry" />
        </mxCell>
        <mxCell id="4-IDEk3W93GI_t67XEji-18" value="title" style="text;html=1;strokeColor=none;fillColor=none;align=left;verticalAlign=top;spacingLeft=4;spacingRight=4;whiteSpace=wrap;overflow=hidden;rotatable=0;points=[[0,0.5],[1,0.5]];portConstraint=eastwest;" parent="4-IDEk3W93GI_t67XEji-16" vertex="1">
          <mxGeometry y="52" width="160" height="26" as="geometry" />
        </mxCell>
        <mxCell id="4-IDEk3W93GI_t67XEji-19" value="description" style="text;html=1;strokeColor=none;fillColor=none;align=left;verticalAlign=top;spacingLeft=4;spacingRight=4;whiteSpace=wrap;overflow=hidden;rotatable=0;points=[[0,0.5],[1,0.5]];portConstraint=eastwest;" parent="4-IDEk3W93GI_t67XEji-16" vertex="1">
          <mxGeometry y="78" width="160" height="32" as="geometry" />
        </mxCell>
        <mxCell id="4-IDEk3W93GI_t67XEji-20" value="difficulty" style="text;html=1;strokeColor=none;fillColor=none;align=left;verticalAlign=top;spacingLeft=4;spacingRight=4;whiteSpace=wrap;overflow=hidden;rotatable=0;points=[[0,0.5],[1,0.5]];portConstraint=eastwest;" parent="4-IDEk3W93GI_t67XEji-16" vertex="1">
          <mxGeometry y="110" width="160" height="30" as="geometry" />
        </mxCell>
        <mxCell id="4-IDEk3W93GI_t67XEji-24" value="time" style="text;html=1;strokeColor=none;fillColor=none;align=left;verticalAlign=top;spacingLeft=4;spacingRight=4;whiteSpace=wrap;overflow=hidden;rotatable=0;points=[[0,0.5],[1,0.5]];portConstraint=eastwest;" parent="4-IDEk3W93GI_t67XEji-16" vertex="1">
          <mxGeometry y="140" width="160" height="32" as="geometry" />
        </mxCell>
        <mxCell id="4-IDEk3W93GI_t67XEji-23" value="total_points" style="text;html=1;strokeColor=none;fillColor=none;align=left;verticalAlign=top;spacingLeft=4;spacingRight=4;whiteSpace=wrap;overflow=hidden;rotatable=0;points=[[0,0.5],[1,0.5]];portConstraint=eastwest;" parent="4-IDEk3W93GI_t67XEji-16" vertex="1">
          <mxGeometry y="172" width="160" height="28" as="geometry" />
        </mxCell>
        <mxCell id="4-IDEk3W93GI_t67XEji-27" value="isFinished" style="text;html=1;strokeColor=none;fillColor=none;align=left;verticalAlign=top;spacingLeft=4;spacingRight=4;whiteSpace=wrap;overflow=hidden;rotatable=0;points=[[0,0.5],[1,0.5]];portConstraint=eastwest;" parent="4-IDEk3W93GI_t67XEji-16" vertex="1">
          <mxGeometry y="200" width="160" height="28" as="geometry" />
        </mxCell>
        <mxCell id="4-IDEk3W93GI_t67XEji-28" value="Plays" style="html=1;rounded=0;shadow=0;comic=0;labelBackgroundColor=none;strokeWidth=1;fontFamily=Verdana;fontSize=10;align=center;" parent="1" vertex="1">
          <mxGeometry x="95" y="674" width="110" height="50" as="geometry" />
        </mxCell>
        <mxCell id="4-IDEk3W93GI_t67XEji-29" value="" style="endArrow=none;html=1;rounded=0;exitX=0.5;exitY=0;exitDx=0;exitDy=0;" parent="1" source="4-IDEk3W93GI_t67XEji-31" edge="1">
          <mxGeometry width="50" height="50" relative="1" as="geometry">
            <mxPoint x="100" y="380" as="sourcePoint" />
            <mxPoint x="150" y="330" as="targetPoint" />
          </mxGeometry>
        </mxCell>
        <mxCell id="4-IDEk3W93GI_t67XEji-32" value="" style="endArrow=none;html=1;rounded=0;exitX=0.5;exitY=0;exitDx=0;exitDy=0;" parent="1" source="4-IDEk3W93GI_t67XEji-28" target="4-IDEk3W93GI_t67XEji-31" edge="1">
          <mxGeometry width="50" height="50" relative="1" as="geometry">
            <mxPoint x="150" y="674" as="sourcePoint" />
            <mxPoint x="150" y="524" as="targetPoint" />
          </mxGeometry>
        </mxCell>
        <mxCell id="4-IDEk3W93GI_t67XEji-31" value="0, n " style="text;html=1;align=center;verticalAlign=middle;whiteSpace=wrap;rounded=0;" parent="1" vertex="1">
          <mxGeometry x="120" y="590" width="60" height="30" as="geometry" />
        </mxCell>
        <mxCell id="4-IDEk3W93GI_t67XEji-33" value="" style="endArrow=none;html=1;rounded=0;entryX=0;entryY=0.5;entryDx=0;entryDy=0;" parent="1" target="4-IDEk3W93GI_t67XEji-14" edge="1">
          <mxGeometry width="50" height="50" relative="1" as="geometry">
            <mxPoint x="230" y="235" as="sourcePoint" />
            <mxPoint x="330" y="235" as="targetPoint" />
          </mxGeometry>
        </mxCell>
        <mxCell id="4-IDEk3W93GI_t67XEji-14" value="0, n " style="text;html=1;align=center;verticalAlign=middle;whiteSpace=wrap;rounded=0;" parent="1" vertex="1">
          <mxGeometry x="250" y="220" width="60" height="30" as="geometry" />
        </mxCell>
        <mxCell id="4-IDEk3W93GI_t67XEji-34" value="" style="endArrow=none;html=1;rounded=0;" parent="1" target="4-IDEk3W93GI_t67XEji-15" edge="1">
          <mxGeometry width="50" height="50" relative="1" as="geometry">
            <mxPoint x="440" y="234.5" as="sourcePoint" />
            <mxPoint x="530" y="235" as="targetPoint" />
          </mxGeometry>
        </mxCell>
        <mxCell id="4-IDEk3W93GI_t67XEji-15" value="&lt;div&gt;1, 1 &lt;/div&gt;" style="text;html=1;align=center;verticalAlign=middle;whiteSpace=wrap;rounded=0;" parent="1" vertex="1">
          <mxGeometry x="450" y="220" width="60" height="30" as="geometry" />
        </mxCell>
        <mxCell id="4-IDEk3W93GI_t67XEji-35" value="" style="endArrow=none;html=1;rounded=0;" parent="1" target="4-IDEk3W93GI_t67XEji-8" edge="1">
          <mxGeometry width="50" height="50" relative="1" as="geometry">
            <mxPoint x="440" y="164.5" as="sourcePoint" />
            <mxPoint x="530" y="165" as="targetPoint" />
          </mxGeometry>
        </mxCell>
        <mxCell id="4-IDEk3W93GI_t67XEji-8" value="&lt;div&gt;1, 1 &lt;/div&gt;" style="text;html=1;align=center;verticalAlign=middle;whiteSpace=wrap;rounded=0;" parent="1" vertex="1">
          <mxGeometry x="450" y="150" width="60" height="30" as="geometry" />
        </mxCell>
        <mxCell id="4-IDEk3W93GI_t67XEji-36" value="" style="endArrow=none;html=1;rounded=0;entryX=0;entryY=0.5;entryDx=0;entryDy=0;" parent="1" target="4-IDEk3W93GI_t67XEji-7" edge="1">
          <mxGeometry width="50" height="50" relative="1" as="geometry">
            <mxPoint x="230" y="165" as="sourcePoint" />
            <mxPoint x="330" y="165" as="targetPoint" />
          </mxGeometry>
        </mxCell>
        <mxCell id="4-IDEk3W93GI_t67XEji-7" value="0, n " style="text;html=1;align=center;verticalAlign=middle;whiteSpace=wrap;rounded=0;" parent="1" vertex="1">
          <mxGeometry x="250" y="149" width="60" height="30" as="geometry" />
        </mxCell>
        <mxCell id="4-IDEk3W93GI_t67XEji-41" value="" style="endArrow=none;html=1;rounded=0;entryX=-0.006;entryY=0.719;entryDx=0;entryDy=0;entryPerimeter=0;exitX=1;exitY=0.5;exitDx=0;exitDy=0;" parent="1" source="4-IDEk3W93GI_t67XEji-37" target="4-IDEk3W93GI_t67XEji-19" edge="1">
          <mxGeometry width="50" height="50" relative="1" as="geometry">
            <mxPoint x="290" y="687.5228455284554" as="sourcePoint" />
            <mxPoint x="319.03999999999996" y="690.478" as="targetPoint" />
          </mxGeometry>
        </mxCell>
        <mxCell id="4-IDEk3W93GI_t67XEji-42" value="" style="endArrow=none;html=1;rounded=0;entryX=0;entryY=0.5;entryDx=0;entryDy=0;exitX=0.993;exitY=0.299;exitDx=0;exitDy=0;exitPerimeter=0;" parent="1" source="4-IDEk3W93GI_t67XEji-28" target="4-IDEk3W93GI_t67XEji-37" edge="1">
          <mxGeometry width="50" height="50" relative="1" as="geometry">
            <mxPoint x="205" y="694" as="sourcePoint" />
            <mxPoint x="319" y="695" as="targetPoint" />
          </mxGeometry>
        </mxCell>
        <mxCell id="4-IDEk3W93GI_t67XEji-37" value="&lt;div&gt;1, n &lt;/div&gt;" style="text;html=1;align=center;verticalAlign=middle;whiteSpace=wrap;rounded=0;" parent="1" vertex="1">
          <mxGeometry x="230" y="674" width="60" height="30" as="geometry" />
        </mxCell>
        <mxCell id="4-IDEk3W93GI_t67XEji-45" value="Contains" style="html=1;rounded=0;shadow=0;comic=0;labelBackgroundColor=none;strokeWidth=1;fontFamily=Verdana;fontSize=10;align=center;" parent="1" vertex="1">
          <mxGeometry x="570" y="694" width="110" height="50" as="geometry" />
        </mxCell>
        <mxCell id="4-IDEk3W93GI_t67XEji-50" value="Clue" style="swimlane;html=1;fontStyle=0;childLayout=stackLayout;horizontal=1;startSize=26;fillColor=none;horizontalStack=0;resizeParent=1;resizeLast=0;collapsible=1;marginBottom=0;swimlaneFillColor=#ffffff;rounded=0;shadow=0;comic=0;labelBackgroundColor=none;strokeWidth=1;fontFamily=Verdana;fontSize=10;align=center;" parent="1" vertex="1">
          <mxGeometry x="770" y="664" width="160" height="110" as="geometry" />
        </mxCell>
        <mxCell id="4-IDEk3W93GI_t67XEji-51" value="id_clue" style="text;html=1;strokeColor=none;fillColor=none;align=left;verticalAlign=top;spacingLeft=4;spacingRight=4;whiteSpace=wrap;overflow=hidden;rotatable=0;points=[[0,0.5],[1,0.5]];portConstraint=eastwest;" parent="4-IDEk3W93GI_t67XEji-50" vertex="1">
          <mxGeometry y="26" width="160" height="26" as="geometry" />
        </mxCell>
        <mxCell id="4-IDEk3W93GI_t67XEji-53" value="name" style="text;html=1;strokeColor=none;fillColor=none;align=left;verticalAlign=top;spacingLeft=4;spacingRight=4;whiteSpace=wrap;overflow=hidden;rotatable=0;points=[[0,0.5],[1,0.5]];portConstraint=eastwest;" parent="4-IDEk3W93GI_t67XEji-50" vertex="1">
          <mxGeometry y="52" width="160" height="28" as="geometry" />
        </mxCell>
        <mxCell id="4-IDEk3W93GI_t67XEji-52" value="isFound" style="text;html=1;strokeColor=none;fillColor=none;align=left;verticalAlign=top;spacingLeft=4;spacingRight=4;whiteSpace=wrap;overflow=hidden;rotatable=0;points=[[0,0.5],[1,0.5]];portConstraint=eastwest;" parent="4-IDEk3W93GI_t67XEji-50" vertex="1">
          <mxGeometry y="80" width="160" height="28" as="geometry" />
        </mxCell>
        <mxCell id="4-IDEk3W93GI_t67XEji-55" value="" style="endArrow=none;html=1;rounded=0;entryX=0;entryY=0.5;entryDx=0;entryDy=0;exitX=1;exitY=0.5;exitDx=0;exitDy=0;" parent="1" source="4-IDEk3W93GI_t67XEji-57" target="4-IDEk3W93GI_t67XEji-45" edge="1">
          <mxGeometry width="50" height="50" relative="1" as="geometry">
            <mxPoint x="480" y="724" as="sourcePoint" />
            <mxPoint x="530" y="674" as="targetPoint" />
          </mxGeometry>
        </mxCell>
        <mxCell id="4-IDEk3W93GI_t67XEji-56" value="" style="endArrow=none;html=1;rounded=0;entryX=0;entryY=0.5;entryDx=0;entryDy=0;exitX=1;exitY=0.5;exitDx=0;exitDy=0;" parent="1" source="4-IDEk3W93GI_t67XEji-59" edge="1">
          <mxGeometry width="50" height="50" relative="1" as="geometry">
            <mxPoint x="680" y="718.44" as="sourcePoint" />
            <mxPoint x="770" y="718.44" as="targetPoint" />
          </mxGeometry>
        </mxCell>
        <mxCell id="4-IDEk3W93GI_t67XEji-58" value="" style="endArrow=none;html=1;rounded=0;entryX=0;entryY=0.5;entryDx=0;entryDy=0;exitX=1;exitY=0.5;exitDx=0;exitDy=0;" parent="1" source="4-IDEk3W93GI_t67XEji-20" target="4-IDEk3W93GI_t67XEji-57" edge="1">
          <mxGeometry width="50" height="50" relative="1" as="geometry">
            <mxPoint x="480" y="719" as="sourcePoint" />
            <mxPoint x="570" y="719" as="targetPoint" />
          </mxGeometry>
        </mxCell>
        <mxCell id="4-IDEk3W93GI_t67XEji-57" value="&lt;div&gt;1, n &lt;/div&gt;" style="text;html=1;align=center;verticalAlign=middle;whiteSpace=wrap;rounded=0;" parent="1" vertex="1">
          <mxGeometry x="490" y="704" width="60" height="30" as="geometry" />
        </mxCell>
        <mxCell id="4-IDEk3W93GI_t67XEji-60" value="" style="endArrow=none;html=1;rounded=0;entryX=0;entryY=0.5;entryDx=0;entryDy=0;exitX=1;exitY=0.5;exitDx=0;exitDy=0;" parent="1" target="4-IDEk3W93GI_t67XEji-59" edge="1">
          <mxGeometry width="50" height="50" relative="1" as="geometry">
            <mxPoint x="680" y="718.44" as="sourcePoint" />
            <mxPoint x="770" y="718.44" as="targetPoint" />
          </mxGeometry>
        </mxCell>
        <mxCell id="4-IDEk3W93GI_t67XEji-59" value="&lt;div&gt;1, 1 &lt;/div&gt;" style="text;html=1;align=center;verticalAlign=middle;whiteSpace=wrap;rounded=0;" parent="1" vertex="1">
          <mxGeometry x="700" y="704" width="60" height="30" as="geometry" />
        </mxCell>
        <mxCell id="zVSGGxZKc5TtMINs2V1W-1" value="Contains" style="html=1;rounded=0;shadow=0;comic=0;labelBackgroundColor=none;strokeWidth=1;fontFamily=Verdana;fontSize=10;align=center;" vertex="1" parent="1">
          <mxGeometry x="470" y="910" width="110" height="50" as="geometry" />
        </mxCell>
        <mxCell id="zVSGGxZKc5TtMINs2V1W-2" value="Location" style="swimlane;html=1;fontStyle=0;childLayout=stackLayout;horizontal=1;startSize=26;fillColor=none;horizontalStack=0;resizeParent=1;resizeLast=0;collapsible=1;marginBottom=0;swimlaneFillColor=#ffffff;rounded=0;shadow=0;comic=0;labelBackgroundColor=none;strokeWidth=1;fontFamily=Verdana;fontSize=10;align=center;" vertex="1" parent="1">
          <mxGeometry x="670" y="880" width="160" height="140" as="geometry" />
        </mxCell>
        <mxCell id="zVSGGxZKc5TtMINs2V1W-3" value="id_location" style="text;html=1;strokeColor=none;fillColor=none;align=left;verticalAlign=top;spacingLeft=4;spacingRight=4;whiteSpace=wrap;overflow=hidden;rotatable=0;points=[[0,0.5],[1,0.5]];portConstraint=eastwest;" vertex="1" parent="zVSGGxZKc5TtMINs2V1W-2">
          <mxGeometry y="26" width="160" height="26" as="geometry" />
        </mxCell>
        <mxCell id="zVSGGxZKc5TtMINs2V1W-4" value="name" style="text;html=1;strokeColor=none;fillColor=none;align=left;verticalAlign=top;spacingLeft=4;spacingRight=4;whiteSpace=wrap;overflow=hidden;rotatable=0;points=[[0,0.5],[1,0.5]];portConstraint=eastwest;" vertex="1" parent="zVSGGxZKc5TtMINs2V1W-2">
          <mxGeometry y="52" width="160" height="28" as="geometry" />
        </mxCell>
        <mxCell id="zVSGGxZKc5TtMINs2V1W-5" value="icon" style="text;html=1;strokeColor=none;fillColor=none;align=left;verticalAlign=top;spacingLeft=4;spacingRight=4;whiteSpace=wrap;overflow=hidden;rotatable=0;points=[[0,0.5],[1,0.5]];portConstraint=eastwest;" vertex="1" parent="zVSGGxZKc5TtMINs2V1W-2">
          <mxGeometry y="80" width="160" height="30" as="geometry" />
        </mxCell>
        <mxCell id="zVSGGxZKc5TtMINs2V1W-32" value="image" style="text;html=1;strokeColor=none;fillColor=none;align=left;verticalAlign=top;spacingLeft=4;spacingRight=4;whiteSpace=wrap;overflow=hidden;rotatable=0;points=[[0,0.5],[1,0.5]];portConstraint=eastwest;" vertex="1" parent="zVSGGxZKc5TtMINs2V1W-2">
          <mxGeometry y="110" width="160" height="30" as="geometry" />
        </mxCell>
        <mxCell id="zVSGGxZKc5TtMINs2V1W-6" value="" style="endArrow=none;html=1;rounded=0;entryX=0;entryY=0.5;entryDx=0;entryDy=0;exitX=1;exitY=0.5;exitDx=0;exitDy=0;" edge="1" parent="1" source="zVSGGxZKc5TtMINs2V1W-9" target="zVSGGxZKc5TtMINs2V1W-1">
          <mxGeometry width="50" height="50" relative="1" as="geometry">
            <mxPoint x="380" y="940" as="sourcePoint" />
            <mxPoint x="430" y="890" as="targetPoint" />
          </mxGeometry>
        </mxCell>
        <mxCell id="zVSGGxZKc5TtMINs2V1W-7" value="" style="endArrow=none;html=1;rounded=0;entryX=0;entryY=0.5;entryDx=0;entryDy=0;exitX=1;exitY=0.5;exitDx=0;exitDy=0;" edge="1" parent="1" source="zVSGGxZKc5TtMINs2V1W-11">
          <mxGeometry width="50" height="50" relative="1" as="geometry">
            <mxPoint x="580" y="934.44" as="sourcePoint" />
            <mxPoint x="670" y="934.44" as="targetPoint" />
          </mxGeometry>
        </mxCell>
        <mxCell id="zVSGGxZKc5TtMINs2V1W-8" value="" style="endArrow=none;html=1;rounded=0;entryX=0;entryY=0.5;entryDx=0;entryDy=0;exitX=0.489;exitY=1.085;exitDx=0;exitDy=0;exitPerimeter=0;" edge="1" parent="1" target="zVSGGxZKc5TtMINs2V1W-9" source="4-IDEk3W93GI_t67XEji-27">
          <mxGeometry width="50" height="50" relative="1" as="geometry">
            <mxPoint x="360" y="1005" as="sourcePoint" />
            <mxPoint x="450" y="1005" as="targetPoint" />
          </mxGeometry>
        </mxCell>
        <mxCell id="zVSGGxZKc5TtMINs2V1W-9" value="&lt;div&gt;1, n &lt;/div&gt;" style="text;html=1;align=center;verticalAlign=middle;whiteSpace=wrap;rounded=0;" vertex="1" parent="1">
          <mxGeometry x="400" y="920" width="50" height="30" as="geometry" />
        </mxCell>
        <mxCell id="zVSGGxZKc5TtMINs2V1W-10" value="" style="endArrow=none;html=1;rounded=0;entryX=0;entryY=0.5;entryDx=0;entryDy=0;exitX=1;exitY=0.5;exitDx=0;exitDy=0;" edge="1" parent="1" target="zVSGGxZKc5TtMINs2V1W-11">
          <mxGeometry width="50" height="50" relative="1" as="geometry">
            <mxPoint x="580" y="934.44" as="sourcePoint" />
            <mxPoint x="670" y="934.44" as="targetPoint" />
          </mxGeometry>
        </mxCell>
        <mxCell id="zVSGGxZKc5TtMINs2V1W-11" value="&lt;div&gt;1, 1 &lt;/div&gt;" style="text;html=1;align=center;verticalAlign=middle;whiteSpace=wrap;rounded=0;" vertex="1" parent="1">
          <mxGeometry x="600" y="920" width="60" height="30" as="geometry" />
        </mxCell>
        <mxCell id="zVSGGxZKc5TtMINs2V1W-12" value="Contains" style="html=1;rounded=0;shadow=0;comic=0;labelBackgroundColor=none;strokeWidth=1;fontFamily=Verdana;fontSize=10;align=center;" vertex="1" parent="1">
          <mxGeometry x="472" y="470" width="110" height="50" as="geometry" />
        </mxCell>
        <mxCell id="zVSGGxZKc5TtMINs2V1W-13" value="Character" style="swimlane;html=1;fontStyle=0;childLayout=stackLayout;horizontal=1;startSize=26;fillColor=none;horizontalStack=0;resizeParent=1;resizeLast=0;collapsible=1;marginBottom=0;swimlaneFillColor=#ffffff;rounded=0;shadow=0;comic=0;labelBackgroundColor=none;strokeWidth=1;fontFamily=Verdana;fontSize=10;align=center;" vertex="1" parent="1">
          <mxGeometry x="670" y="400" width="160" height="220" as="geometry" />
        </mxCell>
        <mxCell id="zVSGGxZKc5TtMINs2V1W-14" value="id_character" style="text;html=1;strokeColor=none;fillColor=none;align=left;verticalAlign=top;spacingLeft=4;spacingRight=4;whiteSpace=wrap;overflow=hidden;rotatable=0;points=[[0,0.5],[1,0.5]];portConstraint=eastwest;" vertex="1" parent="zVSGGxZKc5TtMINs2V1W-13">
          <mxGeometry y="26" width="160" height="26" as="geometry" />
        </mxCell>
        <mxCell id="zVSGGxZKc5TtMINs2V1W-24" value="firstName" style="text;html=1;strokeColor=none;fillColor=none;align=left;verticalAlign=top;spacingLeft=4;spacingRight=4;whiteSpace=wrap;overflow=hidden;rotatable=0;points=[[0,0.5],[1,0.5]];portConstraint=eastwest;" vertex="1" parent="zVSGGxZKc5TtMINs2V1W-13">
          <mxGeometry y="52" width="160" height="28" as="geometry" />
        </mxCell>
        <mxCell id="zVSGGxZKc5TtMINs2V1W-15" value="name" style="text;html=1;strokeColor=none;fillColor=none;align=left;verticalAlign=top;spacingLeft=4;spacingRight=4;whiteSpace=wrap;overflow=hidden;rotatable=0;points=[[0,0.5],[1,0.5]];portConstraint=eastwest;" vertex="1" parent="zVSGGxZKc5TtMINs2V1W-13">
          <mxGeometry y="80" width="160" height="28" as="geometry" />
        </mxCell>
        <mxCell id="zVSGGxZKc5TtMINs2V1W-25" value="description" style="text;html=1;strokeColor=none;fillColor=none;align=left;verticalAlign=top;spacingLeft=4;spacingRight=4;whiteSpace=wrap;overflow=hidden;rotatable=0;points=[[0,0.5],[1,0.5]];portConstraint=eastwest;" vertex="1" parent="zVSGGxZKc5TtMINs2V1W-13">
          <mxGeometry y="108" width="160" height="28" as="geometry" />
        </mxCell>
        <mxCell id="zVSGGxZKc5TtMINs2V1W-26" value="image" style="text;html=1;strokeColor=none;fillColor=none;align=left;verticalAlign=top;spacingLeft=4;spacingRight=4;whiteSpace=wrap;overflow=hidden;rotatable=0;points=[[0,0.5],[1,0.5]];portConstraint=eastwest;" vertex="1" parent="zVSGGxZKc5TtMINs2V1W-13">
          <mxGeometry y="136" width="160" height="28" as="geometry" />
        </mxCell>
        <mxCell id="zVSGGxZKc5TtMINs2V1W-28" value="isGuilty" style="text;html=1;strokeColor=none;fillColor=none;align=left;verticalAlign=top;spacingLeft=4;spacingRight=4;whiteSpace=wrap;overflow=hidden;rotatable=0;points=[[0,0.5],[1,0.5]];portConstraint=eastwest;" vertex="1" parent="zVSGGxZKc5TtMINs2V1W-13">
          <mxGeometry y="164" width="160" height="28" as="geometry" />
        </mxCell>
        <mxCell id="zVSGGxZKc5TtMINs2V1W-29" value="isAssociate" style="text;html=1;strokeColor=none;fillColor=none;align=left;verticalAlign=top;spacingLeft=4;spacingRight=4;whiteSpace=wrap;overflow=hidden;rotatable=0;points=[[0,0.5],[1,0.5]];portConstraint=eastwest;" vertex="1" parent="zVSGGxZKc5TtMINs2V1W-13">
          <mxGeometry y="192" width="160" height="28" as="geometry" />
        </mxCell>
        <mxCell id="zVSGGxZKc5TtMINs2V1W-17" value="" style="endArrow=none;html=1;rounded=0;entryX=0;entryY=0.5;entryDx=0;entryDy=0;exitX=1;exitY=0.5;exitDx=0;exitDy=0;" edge="1" parent="1" source="zVSGGxZKc5TtMINs2V1W-20" target="zVSGGxZKc5TtMINs2V1W-12">
          <mxGeometry width="50" height="50" relative="1" as="geometry">
            <mxPoint x="382" y="500" as="sourcePoint" />
            <mxPoint x="432" y="450" as="targetPoint" />
          </mxGeometry>
        </mxCell>
        <mxCell id="zVSGGxZKc5TtMINs2V1W-18" value="" style="endArrow=none;html=1;rounded=0;entryX=0;entryY=0.5;entryDx=0;entryDy=0;exitX=1;exitY=0.5;exitDx=0;exitDy=0;" edge="1" parent="1" source="zVSGGxZKc5TtMINs2V1W-22">
          <mxGeometry width="50" height="50" relative="1" as="geometry">
            <mxPoint x="582" y="494.44000000000005" as="sourcePoint" />
            <mxPoint x="672" y="494.44000000000005" as="targetPoint" />
          </mxGeometry>
        </mxCell>
        <mxCell id="zVSGGxZKc5TtMINs2V1W-19" value="" style="endArrow=none;html=1;rounded=0;entryX=0;entryY=0.5;entryDx=0;entryDy=0;exitX=0.5;exitY=0;exitDx=0;exitDy=0;" edge="1" parent="1" target="zVSGGxZKc5TtMINs2V1W-20" source="4-IDEk3W93GI_t67XEji-16">
          <mxGeometry width="50" height="50" relative="1" as="geometry">
            <mxPoint x="400" y="580" as="sourcePoint" />
            <mxPoint x="452" y="565" as="targetPoint" />
          </mxGeometry>
        </mxCell>
        <mxCell id="zVSGGxZKc5TtMINs2V1W-20" value="&lt;div&gt;1, n &lt;/div&gt;" style="text;html=1;align=center;verticalAlign=middle;whiteSpace=wrap;rounded=0;" vertex="1" parent="1">
          <mxGeometry x="402" y="480" width="50" height="30" as="geometry" />
        </mxCell>
        <mxCell id="zVSGGxZKc5TtMINs2V1W-21" value="" style="endArrow=none;html=1;rounded=0;entryX=0;entryY=0.5;entryDx=0;entryDy=0;exitX=1;exitY=0.5;exitDx=0;exitDy=0;" edge="1" parent="1" target="zVSGGxZKc5TtMINs2V1W-22">
          <mxGeometry width="50" height="50" relative="1" as="geometry">
            <mxPoint x="582" y="494.44000000000005" as="sourcePoint" />
            <mxPoint x="672" y="494.44000000000005" as="targetPoint" />
          </mxGeometry>
        </mxCell>
        <mxCell id="zVSGGxZKc5TtMINs2V1W-22" value="&lt;div&gt;1, 1 &lt;/div&gt;" style="text;html=1;align=center;verticalAlign=middle;whiteSpace=wrap;rounded=0;" vertex="1" parent="1">
          <mxGeometry x="602" y="480" width="60" height="30" as="geometry" />
        </mxCell>
      </root>
    </mxGraphModel>
  </diagram>
</mxfile>
